<svg width="24" height="24" viewBox="0 0 24 24" fill="none" xmlns="http://www.w3.org/2000/svg">
<path fill-rule="evenodd" clip-rule="evenodd" d="M12 2.75C17.1086 2.75 21.25 6.89137 21.25 12C21.25 17.1086 17.1086 21.25 12 21.25C6.89137 21.25 2.75 17.1086 2.75 12C2.75 6.89137 6.89137 2.75 12 2.75ZM22.75 12C22.75 6.06294 17.9371 1.25 12 1.25C6.06294 1.25 1.25 6.06294 1.25 12C1.25 17.9371 6.06294 22.75 12 22.75C17.9371 22.75 22.75 17.9371 22.75 12ZM10.0973 4.86735C10.4468 4.64497 10.9103 4.74798 11.1327 5.09744L12 6.46031L12.8673 5.09744C13.0897 4.74798 13.5532 4.64497 13.9027 4.86735C14.2521 5.08973 14.3552 5.5533 14.1328 5.90275L12.889 7.85728L16.3207 13.25H17.5C17.9142 13.25 18.25 13.5858 18.25 14C18.25 14.4142 17.9142 14.75 17.5 14.75H17.2753L18.1327 16.0974C18.3551 16.4469 18.2521 16.9105 17.9026 17.1328C17.5532 17.3552 17.0896 17.2522 16.8672 16.9028L12 9.25425L9.45725 13.25H13.5C13.9142 13.25 14.25 13.5858 14.25 14C14.25 14.4142 13.9142 14.75 13.5 14.75H8.50271L7.13277 16.9028C6.91039 17.2522 6.44683 17.3552 6.09737 17.1328C5.74791 16.9105 5.6449 16.4469 5.86728 16.0974L6.72474 14.75H6.5C6.08579 14.75 5.75 14.4142 5.75 14C5.75 13.5858 6.08579 13.25 6.5 13.25H7.67929L11.111 7.85728L9.86723 5.90275C9.64485 5.5533 9.74786 5.08973 10.0973 4.86735Z" fill="white"/>
</svg>
