<svg width="24" height="25" viewBox="0 0 24 25" fill="none" xmlns="http://www.w3.org/2000/svg">
<path fill-rule="evenodd" clip-rule="evenodd" d="M17.4 22.25C18.1456 22.25 18.75 21.6456 18.75 20.9V4.1C18.75 3.35442 18.1456 2.75 17.4 2.75H12.6C11.8544 2.75 11.25 3.35442 11.25 4.1V4.75H6.6C5.85441 4.75 5.25 5.35442 5.25 6.1V20.9C5.25 21.6456 5.85441 22.25 6.6 22.25H17.4ZM17.25 4.25V20.75H6.75V6.25H12C12.4142 6.25 12.75 5.91421 12.75 5.5V4.25H17.25ZM10.5117 8.94156C10.8196 9.21865 10.8446 9.69287 10.5675 10.0008L10.5575 10.0119C10.2804 10.3197 9.80616 10.3447 9.49828 10.0676C9.1904 9.79052 9.16544 9.3163 9.44254 9.00842L9.45254 8.99731C9.72963 8.68942 10.2038 8.66446 10.5117 8.94156ZM14.5117 8.94156C14.8196 9.21865 14.8446 9.69287 14.5675 10.0008L14.5575 10.0119C14.2804 10.3197 13.8062 10.3447 13.4983 10.0676C13.1904 9.79052 13.1654 9.3163 13.4425 9.00842L13.4525 8.99731C13.7296 8.68942 14.2038 8.66446 14.5117 8.94156ZM10.5675 14.0008C10.8446 13.6929 10.8196 13.2187 10.5117 12.9416C10.2038 12.6645 9.72963 12.6894 9.45254 12.9973L9.44254 13.0084C9.16544 13.3163 9.1904 13.7905 9.49828 14.0676C9.80616 14.3447 10.2804 14.3197 10.5575 14.0119L10.5675 14.0008ZM14.5117 12.9416C14.8196 13.2187 14.8446 13.6929 14.5675 14.0008L14.5575 14.0119C14.2804 14.3197 13.8062 14.3447 13.4983 14.0676C13.1904 13.7905 13.1654 13.3163 13.4425 13.0084L13.4525 12.9973C13.7296 12.6894 14.2038 12.6645 14.5117 12.9416ZM10.5675 18.0008C10.8446 17.6929 10.8196 17.2187 10.5117 16.9416C10.2038 16.6645 9.72963 16.6894 9.45254 16.9973L9.44254 17.0084C9.16544 17.3163 9.1904 17.7905 9.49828 18.0676C9.80616 18.3447 10.2804 18.3197 10.5575 18.0119L10.5675 18.0008ZM14.5117 16.9416C14.8196 17.2187 14.8446 17.6929 14.5675 18.0008L14.5575 18.0119C14.2804 18.3197 13.8062 18.3447 13.4983 18.0676C13.1904 17.7905 13.1654 17.3163 13.4425 17.0084L13.4525 16.9973C13.7296 16.6894 14.2038 16.6645 14.5117 16.9416Z" fill="#1A1C1E"/>
</svg>
