<svg width="33" height="33" viewBox="0 0 33 33" fill="none" xmlns="http://www.w3.org/2000/svg">
<path fill-rule="evenodd" clip-rule="evenodd" d="M15.3334 6.50052C15.0411 6.82962 14.5544 6.9367 14.1412 6.73158C13.6465 6.48599 13.4446 5.88589 13.6902 5.39121L14.3509 4.06039C15.1591 2.43236 17.4808 2.42441 18.3039 4.03653C18.3079 4.04444 18.3119 4.0524 18.3159 4.06039L21.5461 10.5671L28.7725 11.6173C30.5798 11.88 31.3165 14.1009 29.9947 15.381L24.771 20.4398L26.0035 27.5853C26.3164 29.3989 24.4075 30.7543 22.7961 29.9117L16.3333 26.5324L14.7006 27.3861C14.2112 27.642 13.607 27.4527 13.3511 26.9633C13.0952 26.4739 13.2845 25.8697 13.7739 25.6137L15.3334 24.7983V6.50052ZM17.3334 24.7984V6.57907L19.9878 11.926C20.1338 12.2201 20.4148 12.4237 20.7397 12.4709L28.4849 13.5965C28.665 13.6227 28.7204 13.8309 28.6034 13.9442L23 19.3707C22.7625 19.6007 22.6541 19.9332 22.7103 20.259L24.0327 27.9252C24.0415 27.9763 24.0338 28.0106 24.0226 28.0364C24.0097 28.0661 23.9859 28.0976 23.9503 28.1233C23.9148 28.1489 23.876 28.1626 23.8409 28.1659C23.8098 28.1688 23.7714 28.1648 23.7228 28.1394L17.3334 24.7984ZM8.88074 26.4957C8.97462 25.9515 8.60953 25.4342 8.06528 25.3403C7.52104 25.2464 7.00373 25.6115 6.90985 26.1557L6.66319 27.5857C6.35034 29.3994 8.25925 30.7547 9.87068 29.9121L11.0004 29.3214C11.4898 29.0655 11.6791 28.4613 11.4232 27.9719C11.1673 27.4825 10.5631 27.2932 10.0736 27.5491L8.94396 28.1398C8.89529 28.1652 8.85696 28.1692 8.82585 28.1663C8.79069 28.1631 8.75189 28.1493 8.71639 28.1237C8.68088 28.0981 8.65701 28.0665 8.64412 28.0369C8.63293 28.0111 8.62526 27.9768 8.63408 27.9257L8.88074 26.4957ZM7.3262 18.4958C7.71041 18.099 8.3435 18.0889 8.74023 18.4731L9.66674 19.3703C9.90424 19.6004 10.0127 19.9329 9.9565 20.2587L9.65561 22.003C9.56173 22.5473 9.04443 22.9123 8.50018 22.8185C7.95593 22.7246 7.59084 22.2073 7.68472 21.663L7.89579 20.4394L7.34888 19.9098C6.95214 19.5256 6.94199 18.8925 7.3262 18.4958ZM5.66288 13.3817C6.20942 13.3023 6.58809 12.7948 6.50866 12.2483C6.42923 11.7017 5.92178 11.3231 5.37524 11.4025L3.89426 11.6177C2.08693 11.8804 1.35025 14.1013 2.67203 15.3813L4.56937 17.2188C4.9661 17.603 5.59919 17.5929 5.9834 17.1961C6.36761 16.7994 6.35746 16.1663 5.96072 15.7821L4.06339 13.9446C3.9463 13.8313 4.00174 13.6231 4.18189 13.5969L5.66288 13.3817ZM13.2989 8.42878C13.7936 8.67437 13.9955 9.27447 13.7499 9.76915L12.6789 11.9265C12.5329 12.2205 12.2519 12.4242 11.927 12.4714L9.81053 12.779C9.26399 12.8584 8.75654 12.4797 8.67711 11.9332C8.59768 11.3867 8.97635 10.8792 9.5229 10.7998L11.1206 10.5676L11.9585 8.87981C12.2041 8.38513 12.8042 8.1832 13.2989 8.42878Z" fill="#1A1C1E"/>
</svg>
