<svg width="32" height="33" viewBox="0 0 32 33" fill="none" xmlns="http://www.w3.org/2000/svg">
<g clip-path="url(#clip0_31227_526)">
<path fill-rule="evenodd" clip-rule="evenodd" d="M16 6.83337C9.18849 6.83337 3.66667 12.3552 3.66667 19.1667C3.66667 21.7682 4.47107 24.1793 5.84505 26.168H11.0998C11.5065 24.1616 13.1146 22.5912 15.1406 22.2403L16.3469 15.0025C16.4377 14.4577 16.953 14.0897 17.4977 14.1805C18.0425 14.2713 18.4105 14.7865 18.3197 15.3313L17.158 22.3015C19.0418 22.7482 20.5131 24.2606 20.9 26.1668L26.155 26.1679C27.529 24.1792 28.3333 21.7681 28.3333 19.1667C28.3333 12.3552 22.8115 6.83337 16 6.83337ZM20.9 28.1668L26.6665 28.168C26.981 28.1681 27.2772 28.0202 27.4662 27.7687C29.2662 25.3728 30.3333 22.3929 30.3333 19.1667C30.3333 11.2506 23.9161 4.83337 16 4.83337C8.08392 4.83337 1.66667 11.2506 1.66667 19.1667C1.66667 22.3929 2.73377 25.3728 4.53384 27.7687C4.72273 28.0201 5.01888 28.168 5.33334 28.168H11.1003C11.5641 30.4496 13.5815 32.1667 16 32.1667C18.4189 32.1667 20.4367 30.449 20.9 28.1668ZM15.9793 24.1668C15.9937 24.1671 16.0082 24.1671 16.0226 24.1668C17.669 24.1789 19 25.5174 19 27.1667C19 28.8236 17.6569 30.1667 16 30.1667C14.3432 30.1667 13 28.8236 13 27.1667C13 25.5168 14.332 24.1779 15.9793 24.1668ZM16.7566 10.501C17.1261 10.0905 17.0928 9.45825 16.6823 9.08879C16.2718 8.71933 15.6395 8.75261 15.2701 9.16312L15.2567 9.17793C14.8873 9.58844 14.9205 10.2207 15.331 10.5902C15.7416 10.9596 16.3738 10.9264 16.7433 10.5159L16.7566 10.501ZM22.09 13.1677C22.4594 12.7572 22.4262 12.1249 22.0156 11.7555C21.6051 11.386 20.9728 11.4193 20.6034 11.8298L20.5901 11.8446C20.2206 12.2551 20.2539 12.8874 20.6644 13.2569C21.0749 13.6263 21.7072 13.593 22.0766 13.1825L22.09 13.1677ZM11.349 11.7555C11.7595 12.1249 11.7928 12.7572 11.4233 13.1677L11.41 13.1825C11.0405 13.593 10.4082 13.6263 9.99772 13.2569C9.58721 12.8874 9.55393 12.2551 9.92339 11.8446L9.93672 11.8298C10.3062 11.4193 10.9385 11.386 11.349 11.7555ZM24.7566 18.501C25.1261 18.0905 25.0928 17.4582 24.6823 17.0888C24.2718 16.7193 23.6395 16.7526 23.2701 17.1631L23.2567 17.1779C22.8873 17.5884 22.9205 18.2207 23.331 18.5902C23.7416 18.9596 24.3738 18.9264 24.7433 18.5159L24.7566 18.501ZM8.68231 17.0888C9.09282 17.4582 9.1261 18.0905 8.75664 18.501L8.74331 18.5159C8.37385 18.9264 7.74156 18.9596 7.33105 18.5902C6.92054 18.2207 6.88726 17.5884 7.25672 17.1779L7.27005 17.1631C7.63951 16.7526 8.2718 16.7193 8.68231 17.0888ZM23.4233 23.8344C23.7928 23.4239 23.7595 22.7916 23.349 22.4221C22.9385 22.0527 22.3062 22.0859 21.9367 22.4964L21.9234 22.5113C21.5539 22.9218 21.5872 23.5541 21.9977 23.9235C22.4082 24.293 23.0405 24.2597 23.41 23.8492L23.4233 23.8344ZM10.0156 22.4221C10.4262 22.7916 10.4594 23.4239 10.09 23.8344L10.0766 23.8492C9.70718 24.2597 9.07489 24.293 8.66438 23.9235C8.25387 23.5541 8.22059 22.9218 8.59005 22.5113L8.60339 22.4964C8.97285 22.0859 9.60514 22.0527 10.0156 22.4221Z" fill="#1A1C1E"/>
</g>
<defs>
<clipPath id="clip0_31227_526">
<rect width="32" height="32" fill="white" transform="translate(0 0.5)"/>
</clipPath>
</defs>
</svg>
