<svg width="33" height="33" viewBox="0 0 33 33" fill="none" xmlns="http://www.w3.org/2000/svg">
<path fill-rule="evenodd" clip-rule="evenodd" d="M5.99994 28.1667C5.44765 28.1667 4.99994 27.719 4.99994 27.1667V22.5004C4.99994 22.5003 4.99994 22.5002 4.99994 22.5001V5.83337C4.99994 5.28109 5.44765 4.83337 5.99994 4.83337C6.55222 4.83337 6.99994 5.28109 6.99994 5.83337V20.1918L15.9827 11.7705C16.3764 11.4014 16.9921 11.4113 17.3737 11.7929L20.6666 15.0858L25.9595 9.79293C26.35 9.40241 26.9832 9.40241 27.3737 9.79293C27.7642 10.1835 27.7642 10.8166 27.3737 11.2071L21.3737 17.2071C20.9832 17.5977 20.35 17.5977 19.9595 17.2071L16.6442 13.8918L6.99994 22.9333V26.1667H27.3333C27.8856 26.1667 28.3333 26.6144 28.3333 27.1667C28.3333 27.719 27.8856 28.1667 27.3333 28.1667H5.99994Z" fill="#1A1C1E"/>
</svg>
