<svg width="25" height="25" viewBox="0 0 25 25" fill="none" xmlns="http://www.w3.org/2000/svg">
<path fill-rule="evenodd" clip-rule="evenodd" d="M3.96967 3.90229C4.26256 3.60939 4.73744 3.60939 5.03033 3.90229L21.0303 19.9023C21.3232 20.1952 21.3232 20.6701 21.0303 20.9629C20.7374 21.2558 20.2626 21.2558 19.9697 20.9629L3.96967 4.96295C3.67678 4.67005 3.67678 4.19518 3.96967 3.90229Z" fill="#1C1B1F"/>
<path fill-rule="evenodd" clip-rule="evenodd" d="M21.0303 3.90229C21.3232 4.19518 21.3232 4.67005 21.0303 4.96295L5.03033 20.9629C4.73744 21.2558 4.26256 21.2558 3.96967 20.9629C3.67678 20.6701 3.67678 20.1952 3.96967 19.9023L19.9697 3.90229C20.2626 3.60939 20.7374 3.60939 21.0303 3.90229Z" fill="#1C1B1F"/>
</svg>
