<svg width="24" height="25" viewBox="0 0 24 25" fill="none" xmlns="http://www.w3.org/2000/svg">
<path fill-rule="evenodd" clip-rule="evenodd" d="M2.69241 7.81606C3.07014 7.64608 3.51415 7.8145 3.68413 8.19223C7.01879 15.6026 16.9816 15.6026 20.3162 8.19223C20.4862 7.8145 20.9302 7.64608 21.308 7.81606C21.6857 7.98604 21.8541 8.43005 21.6841 8.80778C20.8177 10.7332 19.5607 12.2271 18.0883 13.2893L20.1063 16.0582C20.3503 16.393 20.2767 16.8621 19.9419 17.1061C19.6072 17.35 19.138 17.2764 18.8941 16.9417L16.8074 14.0786C15.5328 14.7413 14.1497 15.1228 12.7502 15.2232V18C12.7502 18.4142 12.4144 18.75 12.0002 18.75C11.586 18.75 11.2502 18.4142 11.2502 18V15.2232C9.85065 15.1228 8.46755 14.7413 7.19293 14.0786L5.10628 16.9417C4.86232 17.2764 4.39318 17.35 4.05843 17.1061C3.72369 16.8621 3.6501 16.393 3.89407 16.0582L5.91208 13.2893C4.43967 12.2271 3.1827 10.7332 2.31624 8.80778C2.14627 8.43005 2.31468 7.98604 2.69241 7.81606Z" fill="#1A1C1E"/>
</svg>
