<svg width="25" height="25" viewBox="0 0 25 25" fill="none" xmlns="http://www.w3.org/2000/svg">
<path fill-rule="evenodd" clip-rule="evenodd" d="M9.22439 9.62299L6.86328 7.26188L5.1817 7.82241C4.84821 7.93357 4.48227 7.7982 4.30141 7.49677L2.18009 3.96123C2.00303 3.66613 2.04953 3.28838 2.29288 3.04503L3.70709 1.63082C3.95044 1.38747 4.32819 1.34097 4.62329 1.51803L8.15883 3.63935C8.46026 3.82021 8.59563 4.18616 8.48447 4.51964L7.92394 6.20122L9.20328 7.48056C9.37565 6.14961 9.91166 4.86006 10.9139 3.85782C11.9216 2.85007 13.3202 2.26377 14.6846 2.06554C16.0407 1.8685 17.4734 2.03984 18.5476 2.68437C18.7457 2.80319 18.8779 3.00663 18.9061 3.23585C18.9343 3.46507 18.8554 3.69451 18.6921 3.85782L15.8434 6.70647L15.6668 8.65086L17.6112 8.47423L20.4598 5.62558C20.6232 5.46228 20.8526 5.38331 21.0818 5.41153C21.311 5.43975 21.5145 5.572 21.6333 5.77004C22.2778 6.84425 22.4492 8.27694 22.2521 9.6331C22.0539 10.9974 21.4676 12.396 20.4598 13.4038C19.9748 13.8888 19.4224 14.2647 18.8306 14.543L21.9346 17.647C23.0086 18.7209 23.0086 20.4621 21.9346 21.536C20.8607 22.61 19.1195 22.61 18.0456 21.536L12.359 15.8495L6.67123 21.5373C5.59729 22.6113 3.85608 22.6113 2.78214 21.5373C1.7082 20.4634 1.7082 18.7222 2.78214 17.6482L9.51936 10.911C9.38813 10.4985 9.28847 10.066 9.22439 9.62299ZM11.1302 11.1782C11.1144 11.3459 11.0423 11.5094 10.9139 11.6378L3.8428 18.7089C3.35465 19.1971 3.35465 19.9885 3.8428 20.4767C4.33096 20.9648 5.12241 20.9648 5.61057 20.4767L12.6493 13.4379C12.8519 13.2082 13.1839 13.1175 13.4857 13.2358C15.4532 14.0069 17.9325 13.8097 19.3992 12.3431C20.131 11.6113 20.6053 10.5351 20.7677 9.41743C20.868 8.72728 20.8436 8.06325 20.7139 7.49288L18.4798 9.72692C18.3558 9.85099 18.1921 9.92764 18.0174 9.94351L14.9063 10.2261C14.6847 10.2463 14.4655 10.1669 14.3081 10.0095C14.1508 9.85215 14.0714 9.633 14.0915 9.41135L14.3741 6.30031C14.39 6.12556 14.4667 5.96191 14.5907 5.83783L16.8248 3.6038C16.2544 3.47405 15.5904 3.44968 14.9002 3.54996C13.7826 3.71234 12.7063 4.1867 11.9746 4.91848C10.5079 6.38512 10.3107 8.86442 11.0819 10.832C11.1265 10.9459 11.1414 11.0642 11.1302 11.1782ZM13.4395 14.8087L19.1062 20.4754C19.5944 20.9635 20.3858 20.9635 20.874 20.4754C21.3621 19.9872 21.3621 19.1958 20.874 18.7076L17.2207 15.0543C15.9474 15.289 14.6135 15.1765 13.4395 14.8087ZM6.47292 5.81086L5.27811 6.20913L3.76761 3.69162L4.35368 3.10555L6.87119 4.61605L6.47292 5.81086Z" fill="#1A1C1E"/>
</svg>
