<svg width="25" height="25" viewBox="0 0 25 25" fill="none" xmlns="http://www.w3.org/2000/svg">
<path fill-rule="evenodd" clip-rule="evenodd" d="M9.69703 13.4698C8.05692 11.8297 8.05692 9.17051 9.69703 7.53041L12.6667 4.56073L15.6364 7.53041C17.2765 9.17052 17.2765 11.8297 15.6364 13.4698C13.9963 15.1099 11.3371 15.1099 9.69703 13.4698ZM8.63637 6.46975C6.41048 8.69564 6.41048 12.3045 8.63637 14.5304C10.8623 16.7563 14.4711 16.7563 16.697 14.5304C18.9229 12.3045 18.9229 8.69564 16.697 6.46975L13.5933 3.36597C13.0815 2.85425 12.2519 2.85425 11.7401 3.36597L8.63637 6.46975ZM5.41669 12.5001C5.41669 12.9143 5.0809 13.2501 4.66669 13.2501H2.66669C2.25247 13.2501 1.91669 12.9143 1.91669 12.5001C1.91669 12.0859 2.25247 11.7501 2.66669 11.7501H4.66669C5.0809 11.7501 5.41669 12.0859 5.41669 12.5001ZM23.4167 12.5001C23.4167 12.9143 23.0809 13.2501 22.6667 13.2501H20.6667C20.2525 13.2501 19.9167 12.9143 19.9167 12.5001C19.9167 12.0859 20.2525 11.7501 20.6667 11.7501H22.6667C23.0809 11.7501 23.4167 12.0859 23.4167 12.5001ZM4.23416 21.0008C4.51126 20.693 4.4863 20.2187 4.17842 19.9416C3.87053 19.6646 3.39632 19.6895 3.11922 19.9974L3.10922 20.0085C2.83213 20.3164 2.85709 20.7906 3.16497 21.0677C3.47285 21.3448 3.94707 21.3198 4.22416 21.012L4.23416 21.0008ZM7.17842 15.9416C7.4863 16.2187 7.51126 16.693 7.23416 17.0008L7.22416 17.0119C6.94707 17.3198 6.47285 17.3448 6.16497 17.0677C5.85709 16.7906 5.83213 16.3164 6.10922 16.0085L6.11922 15.9974C6.39632 15.6895 6.87053 15.6645 7.17842 15.9416ZM10.2342 21.0008C10.5113 20.693 10.4863 20.2187 10.1784 19.9416C9.87053 19.6646 9.39632 19.6895 9.11922 19.9974L9.10922 20.0085C8.83213 20.3164 8.85709 20.7906 9.16497 21.0677C9.47285 21.3448 9.94707 21.3198 10.2242 21.012L10.2342 21.0008ZM16.1784 19.9416C16.4863 20.2187 16.5113 20.693 16.2342 21.0008L16.2242 21.012C15.9471 21.3198 15.4729 21.3448 15.165 21.0677C14.8571 20.7906 14.8321 20.3164 15.1092 20.0085L15.1192 19.9974C15.3963 19.6895 15.8705 19.6646 16.1784 19.9416ZM19.2342 17.0008C19.5113 16.693 19.4863 16.2187 19.1784 15.9416C18.8705 15.6645 18.3963 15.6895 18.1192 15.9974L18.1092 16.0085C17.8321 16.3164 17.8571 16.7906 18.165 17.0677C18.4729 17.3448 18.9471 17.3198 19.2242 17.0119L19.2342 17.0008ZM22.1784 19.9416C22.4863 20.2187 22.5113 20.693 22.2342 21.0008L22.2242 21.012C21.9471 21.3198 21.4729 21.3448 21.165 21.0677C20.8571 20.7906 20.8321 20.3164 21.1092 20.0085L21.1192 19.9974C21.3963 19.6895 21.8705 19.6646 22.1784 19.9416Z" fill="#1A1C1E"/>
</svg>
