<svg width="25" height="25" viewBox="0 0 25 25" fill="none" xmlns="http://www.w3.org/2000/svg">
<path fill-rule="evenodd" clip-rule="evenodd" d="M3.45129 11.6943C3.43419 11.8924 3.42334 12.0924 3.41894 12.2939L3.42302 12.2954L8.92302 14.2954C9.29303 14.4299 9.49601 14.8277 9.38785 15.2062L8.45159 18.4831L9.33441 21.1316C10.3683 21.531 11.4919 21.75 12.6667 21.75C14.173 21.75 15.5953 21.3899 16.8521 20.7512L16.5109 19.0455L14.3881 18.1964C14.1034 18.0825 13.9167 17.8067 13.9167 17.5V14C13.9167 13.6772 14.1233 13.3906 14.4295 13.2885L17.4295 12.2885C17.5325 12.2542 17.6416 12.2426 17.7495 12.2546L21.9142 12.7173C21.9158 12.6451 21.9167 12.5726 21.9167 12.5C21.9167 12.2285 21.905 11.9597 21.8821 11.6941C21.865 11.6871 21.8481 11.6794 21.8313 11.671L19.9896 10.7502H18.3111L15.9452 11.6966C15.7142 11.789 15.4523 11.7608 15.2462 11.6213C15.0401 11.4817 14.9167 11.2491 14.9167 11.0002V8.0002C14.9167 7.62697 15.1911 7.31052 15.5606 7.25774L18.6018 6.82329L18.9552 5.76303C18.9591 5.75121 18.9633 5.73955 18.9678 5.72805C17.3161 4.19053 15.1012 3.25 12.6667 3.25C11.7636 3.25 10.8907 3.37943 10.0655 3.62075L10.8375 5.16475C10.9579 5.40548 10.94 5.69225 10.7908 5.91619L8.79075 8.91619C8.68042 9.08169 8.50885 9.19659 8.3138 9.2356L5.99274 9.69981L3.63524 11.5858C3.57791 11.6317 3.51593 11.6678 3.45129 11.6943ZM3.94206 9.41942L5.19819 8.41451C5.29182 8.33961 5.40205 8.28824 5.51963 8.26473L7.715 7.82565L9.30125 5.44628L8.65865 4.16108C6.46926 5.21532 4.75877 7.10639 3.94206 9.41942ZM20.118 7.01803C20.7397 7.86171 21.2216 8.81478 21.5294 9.84305L20.5021 9.32938C20.398 9.27731 20.2831 9.2502 20.1667 9.2502H18.1667C18.0713 9.2502 17.9767 9.26841 17.8881 9.30385L16.4167 9.89243V8.65067L19.2728 8.24267C19.554 8.20249 19.7884 8.00688 19.8782 7.73737L20.118 7.01803ZM21.7591 14.2093L17.7476 13.7636L15.4167 14.5406V16.9922L17.4452 17.8036C17.6806 17.8978 17.8524 18.1044 17.9021 18.3529L18.2123 19.9039C20.0278 18.542 21.3259 16.5279 21.7591 14.2093ZM7.4145 20.1153C5.37093 18.7032 3.92352 16.4897 3.5264 13.9291L7.75356 15.4662L6.94557 18.2942C6.90404 18.4395 6.9074 18.594 6.9552 18.7374L7.4145 20.1153ZM1.91669 12.5C1.91669 6.56294 6.72963 1.75 12.6667 1.75C18.6037 1.75 23.4167 6.56294 23.4167 12.5C23.4167 18.4371 18.6037 23.25 12.6667 23.25C6.72963 23.25 1.91669 18.4371 1.91669 12.5Z" fill="#1A1C1E"/>
</svg>
