<svg width="25" height="25" viewBox="0 0 25 25" fill="none" xmlns="http://www.w3.org/2000/svg">
<path fill-rule="evenodd" clip-rule="evenodd" d="M7.93325 2.75C7.18767 2.75 6.58325 3.35441 6.58325 4.1V6.75H5.33325C3.81447 6.75 2.58325 7.98122 2.58325 9.5V18.5C2.58325 20.0188 3.81447 21.25 5.33325 21.25H19.3333C20.852 21.25 22.0833 20.0188 22.0833 18.5V9.5C22.0833 7.98122 20.852 6.75 19.3333 6.75H18.0833V4.1C18.0833 3.35442 17.4788 2.75 16.7333 2.75H7.93325ZM16.5833 6.75V4.25H13.0833V6.75H16.5833ZM11.5833 6.75H11.0833V4.25H11.5833V6.75ZM9.58325 6.75V4.25H8.08325V6.75H9.58325ZM4.08325 9.5C4.08325 8.80964 4.6429 8.25 5.33325 8.25H19.3333C20.0236 8.25 20.5833 8.80964 20.5833 9.5V18.5C20.5833 19.1904 20.0236 19.75 19.3333 19.75H5.33325C4.6429 19.75 4.08325 19.1904 4.08325 18.5V9.5ZM16.8333 12.75C17.5236 12.75 18.0833 13.3096 18.0833 14C18.0833 14.6904 17.5236 15.25 16.8333 15.25C16.1429 15.25 15.5833 14.6904 15.5833 14C15.5833 13.3096 16.1429 12.75 16.8333 12.75Z" fill="#1A1C1E"/>
</svg>
