<svg width="20" height="21" viewBox="0 0 20 21" fill="none" xmlns="http://www.w3.org/2000/svg">
<path d="M8.33366 12.9998L12.6587 10.4998L8.33366 7.99984V12.9998ZM17.967 6.47484C18.0753 6.8665 18.1503 7.3915 18.2003 8.05817C18.2587 8.72484 18.2837 9.29984 18.2837 9.79984L18.3337 10.4998C18.3337 12.3248 18.2003 13.6665 17.967 14.5248C17.7587 15.2748 17.2753 15.7582 16.5253 15.9665C16.1337 16.0748 15.417 16.1498 14.317 16.1998C13.2337 16.2582 12.242 16.2832 11.3253 16.2832L10.0003 16.3332C6.50866 16.3332 4.33366 16.1998 3.47533 15.9665C2.72533 15.7582 2.24199 15.2748 2.03366 14.5248C1.92533 14.1332 1.85033 13.6082 1.80033 12.9415C1.74199 12.2748 1.71699 11.6998 1.71699 11.1998L1.66699 10.4998C1.66699 8.67484 1.80033 7.33317 2.03366 6.47484C2.24199 5.72484 2.72533 5.2415 3.47533 5.03317C3.86699 4.92484 4.58366 4.84984 5.68366 4.79984C6.76699 4.7415 7.75866 4.7165 8.67533 4.7165L10.0003 4.6665C13.492 4.6665 15.667 4.79984 16.5253 5.03317C17.2753 5.2415 17.7587 5.72484 17.967 6.47484Z" fill="white"/>
</svg>
