<svg width="16" height="17" viewBox="0 0 16 17" fill="none" xmlns="http://www.w3.org/2000/svg">
<path fill-rule="evenodd" clip-rule="evenodd" d="M6.28567 6.4795H8.76167V7.71283C9.11834 7.0035 10.033 6.36616 11.407 6.36616C14.041 6.36616 14.6663 7.77816 14.6663 10.3688V15.1668H11.9997V10.9588C11.9997 9.4835 11.643 8.6515 10.735 8.6515C9.47567 8.6515 8.95234 9.54816 8.95234 10.9582V15.1668H6.28567V6.4795ZM1.71301 15.0535H4.37967V6.36616H1.71301V15.0535ZM4.76167 3.5335C4.76177 3.75701 4.71744 3.97832 4.63127 4.18455C4.54509 4.39079 4.41878 4.57784 4.25967 4.73483C3.93727 5.05525 3.50088 5.2346 3.04634 5.2335C2.5926 5.23319 2.15722 5.0543 1.83434 4.7355C1.67582 4.57797 1.54993 4.39071 1.4639 4.18445C1.37788 3.97819 1.33339 3.75698 1.33301 3.5335C1.33301 3.08216 1.51301 2.65016 1.83501 2.3315C2.1576 2.01227 2.59317 1.8333 3.04701 1.8335C3.50167 1.8335 3.93767 2.01283 4.25967 2.3315C4.58101 2.65016 4.76167 3.08216 4.76167 3.5335Z" fill="white"/>
</svg>
