<svg width="20" height="21" viewBox="0 0 20 21" fill="none" xmlns="http://www.w3.org/2000/svg">
<path fill-rule="evenodd" clip-rule="evenodd" d="M2.29199 10.5C2.29199 6.24283 5.74313 2.79169 10.0003 2.79169C14.2575 2.79169 17.7087 6.24283 17.7087 10.5C17.7087 14.7572 14.2575 18.2084 10.0003 18.2084C5.74313 18.2084 2.29199 14.7572 2.29199 10.5ZM10.0003 1.54169C5.05277 1.54169 1.04199 5.55247 1.04199 10.5C1.04199 15.4476 5.05277 19.4584 10.0003 19.4584C14.9479 19.4584 18.9587 15.4476 18.9587 10.5C18.9587 5.55247 14.9479 1.54169 10.0003 1.54169ZM10.0911 5.70835C7.40698 5.70835 5.20866 7.84144 5.20866 10.5C5.20866 13.1586 7.40698 15.2917 10.0911 15.2917C11.7095 15.2917 12.8752 14.6836 13.6426 13.7943C14.3934 12.9243 14.7251 11.8308 14.7905 10.8906L14.837 10.2222H10.7012V11.4722H13.4412C13.3138 12.0072 13.073 12.541 12.6962 12.9777C12.1776 13.5787 11.3637 14.0417 10.0911 14.0417C8.07193 14.0417 6.45866 12.4431 6.45866 10.5C6.45866 8.55692 8.07193 6.95835 10.0911 6.95835C11.0368 6.95835 11.8961 7.31044 12.5403 7.88562L13.3729 6.9532C12.5057 6.17895 11.352 5.70835 10.0911 5.70835Z" fill="#1A1C1E"/>
</svg>
