<svg width="20" height="21" viewBox="0 0 20 21" fill="none" xmlns="http://www.w3.org/2000/svg">
<path fill-rule="evenodd" clip-rule="evenodd" d="M16.875 13.8333C16.875 15.7893 15.2893 17.375 13.3333 17.375H6.66667C4.71066 17.375 3.125 15.7893 3.125 13.8333V7.16667C3.125 5.21066 4.71066 3.625 6.66667 3.625H13.3333C15.2893 3.625 16.875 5.21066 16.875 7.16667V13.8333ZM13.3333 18.625C15.9797 18.625 18.125 16.4797 18.125 13.8333V7.16667C18.125 4.5203 15.9797 2.375 13.3333 2.375H6.66667C4.0203 2.375 1.875 4.5203 1.875 7.16667V13.8333C1.875 16.4797 4.0203 18.625 6.66667 18.625H13.3333ZM5.20833 14.6667C5.20833 15.0118 5.48816 15.2917 5.83333 15.2917C6.17851 15.2917 6.45833 15.0118 6.45833 14.6667V8.83333C6.45833 8.48816 6.17851 8.20833 5.83333 8.20833C5.48816 8.20833 5.20833 8.48816 5.20833 8.83333V14.6667ZM9.16667 15.2917C8.82149 15.2917 8.54167 15.0118 8.54167 14.6667V8.83333C8.54167 8.48815 8.82149 8.20833 9.16667 8.20833C9.51184 8.20833 9.79167 8.48815 9.79167 8.83333V9.53796C10.3481 9.16513 11.017 8.98958 11.6667 8.98958C12.4144 8.98958 13.1876 9.22214 13.7855 9.72038C14.3978 10.2306 14.7917 10.9929 14.7917 11.9583V14.6667C14.7917 15.0118 14.5118 15.2917 14.1667 15.2917C13.8215 15.2917 13.5417 15.0118 13.5417 14.6667V11.9583C13.5417 11.3613 13.3106 10.9517 12.9853 10.6807C12.6457 10.3977 12.169 10.2396 11.6667 10.2396C11.1644 10.2396 10.6876 10.3977 10.348 10.6807C10.0228 10.9517 9.79167 11.3613 9.79167 11.9583V14.6667C9.79167 15.0118 9.51184 15.2917 9.16667 15.2917ZM6.30623 6.75063C6.53714 6.49406 6.51634 6.09888 6.25977 5.86797C6.00321 5.63705 5.60803 5.65785 5.37711 5.91442L5.36878 5.92368C5.13787 6.18025 5.15867 6.57543 5.41524 6.80634C5.6718 7.03725 6.06698 7.01646 6.2979 6.75989L6.30623 6.75063Z" fill="#1A1C1E"/>
</svg>
