<svg width="33" height="34" viewBox="0 0 33 34" fill="none" xmlns="http://www.w3.org/2000/svg">
<path d="M0.695312 12.7797C0.695312 5.72168 6.41699 0 13.475 0H15.3007C16.453 0 17.3872 0.934152 17.3872 2.08649V34H0.695312V12.7797Z" fill="#00E590"/>
<path d="M0.695312 22.7853C0.695312 19.1842 3.61454 16.265 7.21558 16.265H30.9135C32.0659 16.265 33 17.1992 33 18.3515V21.4812C33 28.3952 27.3951 34.0002 20.4811 34.0002H0.695312V22.7853Z" fill="#00E590"/>
<path d="M0.695312 22.7853C0.695312 19.1842 3.61454 16.265 7.21558 16.265H17.3872V27.4799C17.3872 31.0809 14.468 34.0002 10.8669 34.0002H0.695312V22.7853Z" fill="#009984"/>
</svg>
