<svg width="136" height="78" viewBox="0 0 136 78" fill="none" xmlns="http://www.w3.org/2000/svg">
<path d="M108.56 10.6066C108.56 4.74871 113.308 -3.05176e-05 119.166 -3.05176e-05H120.681C121.638 -3.05176e-05 122.413 0.775274 122.413 1.73166V28.2185H108.56V10.6066Z" fill="#88F8CE"/>
<path d="M108.56 18.9108C108.56 15.922 110.982 13.4992 113.971 13.4992H133.639C134.596 13.4992 135.371 14.2745 135.371 15.2309V17.8284C135.371 23.5668 130.719 28.2186 124.981 28.2186H108.56V18.9108Z" fill="#88F8CE"/>
<path d="M108.56 18.9108C108.56 15.922 110.982 13.4992 113.971 13.4992H122.413V22.8071C122.413 25.7958 119.99 28.2186 117.002 28.2186H108.56V18.9108Z" fill="#009984"/>
<path d="M16.5892 78C13.3024 78 10.4613 77.4708 8.0659 76.4123C5.67047 75.3539 3.83211 73.8498 2.55083 71.9C1.26955 69.8945 0.628906 67.527 0.628906 64.7973C0.628906 62.2347 1.21384 59.9785 2.3837 58.0288C3.55357 56.0233 5.33622 54.3521 7.73166 53.0151C10.1828 51.6781 13.2189 50.731 16.8399 50.174L30.7947 47.9178V57.1096L19.0961 59.1986C17.3134 59.5329 15.9486 60.1178 15.0015 60.9534C14.0545 61.7333 13.581 62.8754 13.581 64.3795C13.581 65.7722 14.1102 66.8585 15.1687 67.6384C16.2271 68.4183 17.5362 68.8082 19.0961 68.8082C21.1572 68.8082 22.9678 68.3626 24.5276 67.4712C26.0874 66.5799 27.2851 65.3822 28.1207 63.8781C29.0121 62.3183 29.4577 60.6192 29.4577 58.7808V46.9151C29.4577 45.1881 28.7614 43.7397 27.3687 42.5699C26.0317 41.4 24.1933 40.8151 21.8536 40.8151C19.6253 40.8151 17.6477 41.4278 15.9207 42.6534C14.2495 43.879 13.0239 45.4945 12.244 47.5L2.21658 42.737C3.10791 40.1744 4.52846 37.974 6.47823 36.1356C8.42801 34.2972 10.7677 32.8767 13.4974 31.8739C16.2271 30.8712 19.2075 30.3698 22.4385 30.3698C26.2824 30.3698 29.6805 31.0662 32.6331 32.4589C35.5856 33.8516 37.8696 35.8014 39.4851 38.3082C41.1564 40.7593 41.992 43.6283 41.992 46.9151V76.9973H30.2933V69.6439L33.1344 69.1425C31.7974 71.148 30.3212 72.8192 28.7057 74.1562C27.0901 75.4375 25.2796 76.3845 23.2741 76.9973C21.2687 77.6658 19.0403 78 16.5892 78Z" fill="#88F8CE"/>
<path d="M45.3351 76.9973V31.3726H57.0338V42.3192L56.1981 40.7315C57.2009 36.8877 58.8443 34.2972 61.1283 32.9603C63.468 31.5676 66.2255 30.8712 69.4009 30.8712H72.0749V41.7342H68.1475C65.0835 41.7342 62.6045 42.6813 60.7105 44.5753C58.8164 46.4137 57.8694 49.032 57.8694 52.4301V76.9973H45.3351Z" fill="#88F8CE"/>
<path d="M99.506 77.4987C93.9909 77.4987 89.7014 76.0224 86.6375 73.0699C83.6292 70.0617 82.1251 65.8836 82.1251 60.5356V42.2356H74.4374V31.3726H74.8553C77.195 31.3726 78.9776 30.7876 80.2032 29.6178C81.4845 28.4479 82.1251 26.6931 82.1251 24.3534V21.0109H94.6594V31.3726H105.355V42.2356H94.6594V59.7C94.6594 61.2598 94.9379 62.569 95.495 63.6274C96.0521 64.6301 96.9156 65.3822 98.0854 65.8836C99.2553 66.3849 100.704 66.6356 102.431 66.6356C102.821 66.6356 103.266 66.6078 103.768 66.5521C104.269 66.4964 104.798 66.4407 105.355 66.3849V76.9973C104.52 77.1087 103.573 77.2201 102.514 77.3315C101.456 77.4429 100.453 77.4987 99.506 77.4987Z" fill="#88F8CE"/>
<path d="M108.522 76.9973V31.3726H121.056V76.9973H108.522Z" fill="#88F8CE"/>
</svg>
