<svg width="59" height="34" viewBox="0 0 59 34" fill="none" xmlns="http://www.w3.org/2000/svg">
<path d="M47.0464 4.6234C47.0464 2.06997 49.1164 0 51.6698 0H52.3303C52.7472 0 53.0852 0.337954 53.0852 0.754841V12.3004H47.0464V4.6234Z" fill="#00E590"/>
<path d="M47.0464 8.24317C47.0464 6.9404 48.1025 5.8843 49.4053 5.8843H57.9787C58.3955 5.8843 58.7335 6.22225 58.7335 6.63914V7.7714C58.7335 10.2727 56.7058 12.3004 54.2045 12.3004H47.0464V8.24317Z" fill="#00E590"/>
<path d="M47.0464 8.24317C47.0464 6.9404 48.1025 5.8843 49.4053 5.8843H53.0852V9.94157C53.0852 11.2443 52.0291 12.3004 50.7263 12.3004H47.0464V8.24317Z" fill="#009984"/>
<path d="M6.95706 34.0001C5.52437 34.0001 4.28594 33.7694 3.24177 33.308C2.19761 32.8466 1.39627 32.191 0.837761 31.3411C0.279254 30.4669 0 29.4349 0 28.245C0 27.128 0.254971 26.1445 0.764912 25.2946C1.27485 24.4205 2.05191 23.692 3.09607 23.1092C4.16452 22.5264 5.48794 22.1136 7.06633 21.8707L13.1492 20.8873V24.894L8.04979 25.8046C7.27274 25.9503 6.67781 26.2052 6.265 26.5695C5.85219 26.9095 5.64578 27.4073 5.64578 28.0629C5.64578 28.67 5.87647 29.1435 6.33785 29.4834C6.79922 29.8234 7.36987 29.9934 8.04979 29.9934C8.94826 29.9934 9.73745 29.7991 10.4174 29.4106C11.0973 29.0221 11.6194 28.5 11.9836 27.8443C12.3722 27.1644 12.5664 26.4238 12.5664 25.6225V20.4502C12.5664 19.6974 12.2629 19.0661 11.6558 18.5561C11.073 18.0462 10.2717 17.7912 9.2518 17.7912C8.28048 17.7912 7.41844 18.0583 6.66566 18.5926C5.93718 19.1268 5.40295 19.831 5.06299 20.7052L0.692064 18.629C1.08059 17.512 1.69981 16.5528 2.54971 15.7514C3.39961 14.9501 4.41949 14.3309 5.60936 13.8938C6.79922 13.4567 8.09836 13.2382 9.50677 13.2382C11.1823 13.2382 12.6635 13.5417 13.9505 14.1488C15.2375 14.7558 16.2331 15.6058 16.9373 16.6985C17.6658 17.7669 18.0301 19.0175 18.0301 20.4502V33.563H12.9307V30.3576L14.1691 30.1391C13.5863 31.0133 12.9428 31.7418 12.2386 32.3245C11.5344 32.8831 10.7452 33.2959 9.87101 33.563C8.99683 33.8544 8.02551 34.0001 6.95706 34.0001Z" fill="white"/>
<path d="M19.4873 33.563V13.6753H24.5868V18.4469L24.2225 17.7548C24.6596 16.0793 25.3759 14.9501 26.3715 14.3673C27.3914 13.7602 28.5934 13.4567 29.9776 13.4567H31.1431V18.1919H29.4312C28.0956 18.1919 27.015 18.6047 26.1894 19.4303C25.3638 20.2316 24.951 21.3729 24.951 22.8542V33.563H19.4873Z" fill="white"/>
<path d="M43.1003 33.7815C40.6963 33.7815 38.8265 33.138 37.4909 31.851C36.1797 30.5398 35.524 28.7185 35.524 26.3874V18.4104H32.173V13.6753H32.3551C33.375 13.6753 34.152 13.4203 34.6863 12.9103C35.2448 12.4004 35.524 11.6355 35.524 10.6156V9.15863H40.9877V13.6753H45.65V18.4104H40.9877V26.0231C40.9877 26.703 41.1091 27.2737 41.3519 27.7351C41.5948 28.1722 41.9711 28.5 42.4811 28.7185C42.991 28.9371 43.6224 29.0464 44.3752 29.0464C44.5451 29.0464 44.7394 29.0342 44.9579 29.0099C45.1765 28.9856 45.4072 28.9614 45.65 28.9371V33.563C45.2858 33.6115 44.873 33.6601 44.4116 33.7087C43.9502 33.7572 43.5131 33.7815 43.1003 33.7815Z" fill="white"/>
<path d="M47.0304 33.563V13.6753H52.4941V33.563H47.0304Z" fill="white"/>
</svg>
