<svg width="109" height="65" viewBox="0 0 109 65" fill="none" xmlns="http://www.w3.org/2000/svg">
<path d="M12.6347 64.5001C10.0328 64.5001 7.78366 64.0811 5.88735 63.2432C3.99105 62.4053 2.53575 61.2146 1.52145 59.6711C0.50715 58.0835 0 56.2093 0 54.0484C0 52.0198 0.46305 50.2337 1.38915 48.6902C2.31525 47.1026 3.72645 45.7796 5.62275 44.7212C7.56316 43.6628 9.96661 42.9131 12.8331 42.4721L23.8802 40.6861V47.9626L14.6192 49.6163C13.208 49.8809 12.1275 50.344 11.3778 51.0055C10.6281 51.6229 10.2533 52.5269 10.2533 53.7176C10.2533 54.8201 10.6722 55.6801 11.5101 56.2975C12.348 56.9149 13.3844 57.2236 14.6192 57.2236C16.2509 57.2236 17.6841 56.8708 18.9189 56.1652C20.1537 55.4596 21.1019 54.5114 21.7634 53.3207C22.469 52.0859 22.8218 50.7409 22.8218 49.2856V39.8923C22.8218 38.5252 22.2705 37.3786 21.168 36.4525C20.1096 35.5264 18.6543 35.0633 16.8021 35.0633C15.0381 35.0633 13.4726 35.5484 12.1055 36.5186C10.7825 37.4888 9.81226 38.7677 9.19486 40.3553L1.25685 36.5848C1.96245 34.5562 3.087 32.8142 4.6305 31.3589C6.174 29.9036 8.02621 28.779 10.1871 27.9852C12.348 27.1914 14.7074 26.7945 17.2652 26.7945C20.3081 26.7945 22.9982 27.3458 25.3355 28.4483C27.6728 29.5508 29.4809 31.0943 30.7598 33.0788C32.0828 35.0192 32.7443 37.2904 32.7443 39.8923V63.7063H23.4833V57.8851L25.7324 57.4882C24.674 59.0758 23.5053 60.3988 22.2264 61.4572C20.9475 62.4715 19.5143 63.2212 17.9267 63.7063C16.3391 64.2355 14.5751 64.5001 12.6347 64.5001Z" fill="white"/>
<path d="M35.3908 63.7063V27.5883H44.6518V36.254L43.9903 34.9972C44.7841 31.9542 46.085 29.9036 47.8931 28.8452C49.7453 27.7427 51.9283 27.1914 54.442 27.1914H56.5588V35.791H53.4498C51.0243 35.791 49.0618 36.5407 47.5624 38.0401C46.063 39.4954 45.3133 41.5681 45.3133 44.2582V63.7063H35.3908Z" fill="white"/>
<path d="M78.2741 64.1032C73.9082 64.1032 70.5125 62.9345 68.087 60.5972C65.7056 58.2158 64.5149 54.9083 64.5149 50.6747V36.1879H58.4291V27.5883H58.7598C60.612 27.5883 62.0232 27.1253 62.9934 26.1992C64.0077 25.2731 64.5149 23.8839 64.5149 22.0317V19.3857H74.4374V27.5883H82.9046V36.1879H74.4374V50.0132C74.4374 51.248 74.6579 52.2844 75.0989 53.1223C75.5399 53.9161 76.2234 54.5114 77.1496 54.9083C78.0757 55.3052 79.2223 55.5037 80.5894 55.5037C80.8981 55.5037 81.2509 55.4816 81.6478 55.4375C82.0447 55.3934 82.4636 55.3493 82.9046 55.3052V63.7063C82.2431 63.7945 81.4934 63.8827 80.6555 63.9709C79.8176 64.0591 79.0238 64.1032 78.2741 64.1032Z" fill="white"/>
<path d="M85.4116 63.7063V27.5883H95.3341V63.7063H85.4116Z" fill="white"/>
<path d="M85.4399 11.1475C85.4399 6.51023 89.1991 2.75098 93.8364 2.75098H95.0359C95.793 2.75098 96.4068 3.36473 96.4068 4.12184V25.0896H85.4399V11.1475Z" fill="#00E590"/>
<path d="M85.4399 17.7214C85.4399 15.3555 87.3579 13.4375 89.7238 13.4375H105.294C106.051 13.4375 106.665 14.0513 106.665 14.8084V16.8647C106.665 21.4073 102.982 25.0898 98.4395 25.0898H85.4399V17.7214Z" fill="#00E590"/>
<path d="M85.4399 17.7214C85.4399 15.3555 87.3579 13.4375 89.7238 13.4375H96.4068V20.8059C96.4068 23.1718 94.4888 25.0898 92.1228 25.0898H85.4399V17.7214Z" fill="#009984"/>
</svg>
