<svg width="20" height="21" viewBox="0 0 20 21" fill="none" xmlns="http://www.w3.org/2000/svg">
<path fill-rule="evenodd" clip-rule="evenodd" d="M9.14343 10.5232L3.77817 3.625H5.52793L10.0766 9.47333L9.14343 10.5232ZM8.29885 11.4733L2.86646 17.5848C2.63713 17.8428 2.66037 18.2378 2.91836 18.4671C3.17635 18.6965 3.57139 18.6732 3.80072 18.4152L9.07933 12.4768L13.5235 18.1907C13.7366 18.4647 14.0643 18.625 14.4115 18.625H16.4779C17.4141 18.625 17.9407 17.5483 17.366 16.8093L11.7017 9.52665L17.134 3.41523C17.3634 3.15724 17.3401 2.7622 17.0821 2.53288C16.8242 2.30355 16.4291 2.32679 16.1998 2.58478L10.9212 8.52319L6.47708 2.80932C6.26395 2.53528 5.93623 2.375 5.58906 2.375H3.52259C2.58642 2.375 2.05982 3.45172 2.63457 4.19068L8.29885 11.4733ZM10.8571 10.4768L16.2224 17.375H14.4726L9.9239 11.5267L10.8571 10.4768Z" fill="#1A1C1E"/>
</svg>
